<?xml version="1.0" encoding="utf-8"?>
<!-- Generator: Adobe Illustrator 28.0.0, SVG Export Plug-In . SVG Version: 6.00 Build 0)  -->
<svg version="1.1" id="Layer_1" xmlns="http://www.w3.org/2000/svg" xmlns:xlink="http://www.w3.org/1999/xlink" x="0px" y="0px"
	 viewBox="0 0 40 40" style="enable-background:new 0 0 40 40;" xml:space="preserve">
<style type="text/css">
	.st0{fill:#FFFFFF;}
</style>
<g>
	<g>
		<path class="st0" d="M38,1.2H2c-1.1,0-2,0.9-2,2v22.1c0,1.1,0.9,2,2,2h16.5v8.5H8c-0.8,0-1.5,0.7-1.5,1.5s0.7,1.5,1.5,1.5h24
			c0.8,0,1.5-0.7,1.5-1.5s-0.7-1.5-1.5-1.5H21.5v-8.5H38c1.1,0,2-0.9,2-2V3.2C40,2.1,39.1,1.2,38,1.2z M37,24.3H3V4.2h34V24.3z"/>
	</g>
	<g>
		<path class="st0" d="M8.8,21.2h22.3c1.1,0,2-0.9,2-2v-3.8c0-1.1-0.9-2-2-2H8.8c-1.1,0-2,0.9-2,2v3.8C6.8,20.3,7.7,21.2,8.8,21.2z"
			/>
	</g>
</g>
</svg>
