<?xml version="1.0" encoding="utf-8"?>
<!-- Generator: Adobe Illustrator 28.0.0, SVG Export Plug-In . SVG Version: 6.00 Build 0)  -->
<svg version="1.1" id="Layer_1" xmlns="http://www.w3.org/2000/svg" xmlns:xlink="http://www.w3.org/1999/xlink" x="0px" y="0px"
	 viewBox="0 0 20 20" style="enable-background:new 0 0 20 20;" xml:space="preserve">
<g>
	<g>
		<path d="M15.7,4.9H4.3C4.2,4.9,4.2,4.9,4.2,5v6.6c0,0.1,0.1,0.1,0.1,0.1h11.4c0.1,0,0.1-0.1,0.1-0.1V5C15.8,4.9,15.8,4.9,15.7,4.9
			z M14.5,9.3c0,0.6-0.4,1-1,1h-7c-0.6,0-1-0.4-1-1V8.6c0-0.6,0.4-1,1-1h7c0.6,0,1,0.4,1,1V9.3z"/>
	</g>
	<g>
		<path d="M18,0H2C0.9,0,0,0.9,0,2v16c0,1.1,0.9,2,2,2h16c1.1,0,2-0.9,2-2V2C20,0.9,19.1,0,18,0z M16.8,11.6c0,0.6-0.5,1.1-1.1,1.1
			h-5.2v2.9h3.6c0.3,0,0.5,0.2,0.5,0.5c0,0.3-0.2,0.5-0.5,0.5H5.9c-0.3,0-0.5-0.2-0.5-0.5c0-0.3,0.2-0.5,0.5-0.5h3.6v-2.9H4.3
			c-0.6,0-1.1-0.5-1.1-1.1V5c0-0.6,0.5-1.1,1.1-1.1h11.4c0.6,0,1.1,0.5,1.1,1.1V11.6z"/>
	</g>
</g>
</svg>
