<?xml version="1.0" encoding="utf-8"?>
<!-- Generator: Adobe Illustrator 28.0.0, SVG Export Plug-In . SVG Version: 6.00 Build 0)  -->
<svg version="1.1" id="Layer_1" xmlns="http://www.w3.org/2000/svg" xmlns:xlink="http://www.w3.org/1999/xlink" x="0px" y="0px"
	 viewBox="0 0 40 40" style="enable-background:new 0 0 40 40;" xml:space="preserve">
<style type="text/css">
	.st0{fill:#AEAEAE;}
</style>
<g>
	<path d="M32,40H8c-4.4,0-8-3.6-8-8V8c0-4.4,3.6-8,8-8h24c4.4,0,8,3.6,8,8v24C40,36.4,36.4,40,32,40z"/>
</g>
<path class="st0" d="M30.2,9.2H9.8c-1.1,0-2,0.9-2,2v11.9c0,1.1,0.9,2,2,2h9.3v5.2h-6.4c-0.5,0-0.9,0.4-0.9,0.9s0.4,0.9,0.9,0.9
	h14.7c0.5,0,0.9-0.4,0.9-0.9s-0.4-0.9-0.9-0.9h-6.4v-5.2h9.3c1.1,0,2-0.9,2-2V11.2C32.2,10.1,31.3,9.2,30.2,9.2z M30.4,23.1
	c0,0.1-0.1,0.2-0.2,0.2H9.8c-0.1,0-0.2-0.1-0.2-0.2V11.2c0-0.1,0.1-0.2,0.2-0.2h20.4c0.1,0,0.2,0.1,0.2,0.2V23.1z"/>
<path class="st0" d="M27,20.7H13c-0.6,0-1-0.4-1-1v-2.7c0-0.6,0.4-1,1-1H27c0.6,0,1,0.4,1,1v2.7C28,20.2,27.6,20.7,27,20.7z"/>
</svg>
